<?xml version="1.0" encoding="iso-8859-1"?>
<!-- Generator: Adobe Illustrator 19.0.0, SVG Export Plug-In . SVG Version: 6.00 Build 0)  -->
<svg version="1.1" id="Capa_1" xmlns="http://www.w3.org/2000/svg" xmlns:xlink="http://www.w3.org/1999/xlink" x="0px" y="0px"
	 viewBox="0 0 511.987 511.987" style="enable-background:new 0 0 511.987 511.987;" xml:space="preserve">
<circle style="fill:#28B49B;" cx="255.993" cy="255.993" r="255.993"/>
<path style="fill:#E8F7F9;" d="M276.246,405.569c0-12.209,0-99.361,0-110.855c-14.511,0-26.017,0-40.493,0
	c0,11.501,0,98.647,0,110.855c0,16.69-13.53,30.219-30.219,30.219v13.5c12.271,0,88.63,0,100.93,0v-13.5
	C289.776,435.788,276.246,422.258,276.246,405.569z"/>
<path style="fill:#C3F1FC;" d="M244.889,437.788c7.176-9.505,11.103-21.114,11.103-33.1V294.714c-7.506,0-12.702,0-20.238,0v90.481
	c0,4.76,0,16.235,0,20.375c0,16.69-13.53,30.219-30.219,30.219v2C250.528,437.788,236.772,437.788,244.889,437.788z"/>
<circle style="fill:#FBB659;" cx="432.899" cy="123.937" r="79.088"/>
<g>
	<path style="fill:#F7A15F;" d="M409.519,137.441c-17.276-29.921-12.759-66.427,8.599-91.193
		c-8.488,1.615-16.855,4.639-24.759,9.203c-37.826,21.839-50.787,70.208-28.947,108.034c27.248,47.195,92.933,53.216,128.384,12.107
		C460.666,181.705,426.794,167.364,409.519,137.441z"/>
	<circle style="fill:#F7A15F;" cx="432.899" cy="123.937" r="52.089"/>
</g>
<path style="fill:#D8874E;" d="M451.79,172.491c-36.854-12.921-58.727-50.805-51.489-89.182
	c-19.753,15.808-25.546,44.094-12.509,66.676S428.223,181.693,451.79,172.491z"/>
<path style="fill:#E8F7F9;" d="M441.241,115.942H70.746c-6.313,0-9.474,7.632-5.011,12.096l163.259,163.26h53.999l163.259-163.259
	C450.716,123.575,447.554,115.942,441.241,115.942z"/>
<g>
	<path style="fill:#C3F1FC;" d="M206.045,115.942H70.746c-6.313,0-9.474,7.633-5.011,12.096l163.259,163.26h29.997
		C204.742,248.506,185.705,177.894,206.045,115.942z"/>
	<path style="fill:#C3F1FC;" d="M280.091,289.558c-0.195,0-14.172,0-13.725,0c-0.102,0-35.388,0-34.474,0
		c-13.932,0-18.717,18.698-6.435,25.37c1.913,1.039,4.105,1.629,6.435,1.629c0.197,0,6.351,0,6.25,0c3.218,0,42.946,0,41.949,0
		c7.456,0,13.5-6.044,13.5-13.5C293.591,295.602,287.547,289.558,280.091,289.558z"/>
</g>
<path style="fill:#A5E5F9;" d="M269.491,289.558c-2.56,0-39.834,0-37.599,0c-13.929,0-18.719,18.697-6.435,25.37
	c1.913,1.039,4.105,1.629,6.435,1.629c0.13,0,6.353,0,6.25,0c9.982,0,21.377,0,31.349,0c-2.33,0-4.522-0.59-6.435-1.629
	C250.85,308.296,255.474,289.558,269.491,289.558z"/>
<path style="fill:#F9EBD4;" d="M441.241,115.942h-87.026c-2.906,28.93,10.042,55.827,32.179,71.953l59.857-59.856
	C450.716,123.575,447.554,115.942,441.241,115.942z"/>
<path style="fill:#F9E3B7;" d="M386.395,187.895l34.883-34.883c-9.972-10.276-16.998-23.097-20.274-37.07h-46.769
	C351.275,144.802,364.3,171.8,386.395,187.895z"/>
<path style="fill:#F98FB0;" d="M352.157,177.217c-24.042,0-24.042,19.999-48.086,19.999s-24.043-19.999-48.087-19.999
	c-24.042,0-24.042,19.999-48.085,19.999c-24.041,0-24.041-19.999-48.084-19.999c-5.734,0-10.091,1.145-13.742,2.877l86.576,86.576
	c2.963,2.963,6.982,4.628,11.173,4.628h24.129c4.326,0,8.476-1.719,11.535-4.778l86.422-86.423
	C362.256,178.363,357.896,177.217,352.157,177.217z"/>
<g>
	<path style="fill:#FA6487;" d="M236.18,269.315c-17.413-20.444-29.754-45.332-35.104-72.725
		c-17.47-3.366-19.743-19.374-41.259-19.374c-5.734,0-10.091,1.145-13.742,2.877C237.346,271.045,232.431,267.241,236.18,269.315z"
		/>
	<path style="fill:#FA6487;" d="M207.929,241.948l24.721,24.722c2.963,2.963,6.982,4.628,11.173,4.628h24.129
		c4.326,0,8.476-1.719,11.535-4.778l24.571-24.571c-24.029-0.008-24.034-19.999-48.073-19.999
		C231.952,221.949,231.942,241.933,207.929,241.948z"/>
</g>
<path style="fill:#E64B78;" d="M236.18,269.315c-7.436-8.731-13.952-18.268-19.391-28.467c-2.57,0.686-5.47,1.097-8.862,1.1
	C233.601,267.324,232.7,267.39,236.18,269.315z"/>
<path style="fill:#A5E5F9;" d="M306.465,430.788c-10.433,0-87.258,0-100.947,0c-7.456,0-13.5,6.044-13.5,13.5
	c0,7.456,6.044,13.5,13.5,13.5c25.725,0,81.947,0,100.947,0c7.456,0,13.5-6.044,13.5-13.5
	C319.965,436.832,313.921,430.788,306.465,430.788z"/>
<path style="fill:#55CEED;" d="M239.425,444.288c0-7.456,6.044-13.5,13.5-13.5c-14.655,0-32.16,0-47.407,0
	c-7.456,0-13.5,6.044-13.5,13.5c0,7.456,6.044,13.5,13.5,13.5c14.977,0,33.088,0,47.407,0
	C245.47,457.787,239.425,451.744,239.425,444.288z"/>
<path style="fill:#C3F1FC;" d="M413.505,457.787H98.481c43.432,33.953,98.098,54.196,157.5,54.196
	C315.39,511.984,370.069,491.745,413.505,457.787z"/>
<path style="fill:#A5E5F9;" d="M232.658,483.458c0-11.29,6.561-21.046,16.076-25.67H98.481
	c43.431,33.953,98.098,54.196,157.5,54.196c1.238,0,2.47-0.022,3.704-0.039C244.628,511.165,232.658,498.71,232.658,483.458z"/>
<path style="fill:#FA6487;" d="M177.973,305.959L177.973,305.959c-18.556-15.316-43.04-16.422-62.324-5.03
	c-3.442,2.033-7.702,2.033-11.144,0c-19.285-11.392-43.769-10.287-62.324,5.03l0,0c-14.302,11.805-22.134,29.62-22.799,47.874
	c16.621,40.147,43.157,75.14,76.56,101.935c9.41-3.604,19.851-3.495,29.191,0.353l0,0c9.833,4.05,20.932,0.541,27.266-8.62
	c22.584-32.665,24.059-34.798,36.829-53.268C208.351,366.577,203.286,326.854,177.973,305.959z"/>
<path style="fill:#E64B78;" d="M86.496,310.332L86.496,310.332c5.378-4.439,11.256-7.677,17.359-9.77
	c-19.183-10.989-43.326-9.748-61.674,5.398l0,0c-14.302,11.805-22.134,29.62-22.799,47.874c0,0.001,0,0.001,0,0.001
	c16.832,40.656,43.827,76.033,77.829,102.956c8.633-2.234,14.634-3.616,15.913-3.518c-0.867-1.087-37.814-54.568-37.883-54.668
	C56.119,370.949,61.183,331.226,86.496,310.332z"/>
<path style="fill:#EECE9F;" d="M136.299,274.918c-8.509-4.088-18.722-13.164-18.722-23.141v-8.837c0-4.106-3.164-7.688-7.269-7.811
	c-4.248-0.128-7.731,3.277-7.731,7.496v56.998c0,4.107,3.164,7.688,7.269,7.811c4.247,0.128,7.731-3.277,7.731-7.496v-18.536
	c0-1.961,2.791,2.564,12.476,7.156c1.038,0.492,2.131,0.726,3.209,0.726c2.992,0,5.853-1.798,7.016-4.837
	C141.682,280.774,139.842,276.62,136.299,274.918z"/>
<path style="fill:#E5BC85;" d="M110.077,288.937c-4.142,0-7.5-3.357-7.5-7.5v18.5c0,4.143,3.358,7.5,7.5,7.5
	c4.142,0,7.5-3.357,7.5-7.5v-18.5C117.577,285.579,114.219,288.937,110.077,288.937z"/>
<g>
	<circle style="fill:#F98FB0;" cx="169.256" cy="341.421" r="14.974"/>
	<circle style="fill:#F98FB0;" cx="148.126" cy="320.292" r="6.161"/>
</g>
<g>
</g>
<g>
</g>
<g>
</g>
<g>
</g>
<g>
</g>
<g>
</g>
<g>
</g>
<g>
</g>
<g>
</g>
<g>
</g>
<g>
</g>
<g>
</g>
<g>
</g>
<g>
</g>
<g>
</g>
</svg>
